# xmcd
#
# Track frame offsets:
#	150
#	23572
#	39767
#	70464
#	87374
#	115171
#	136451
#	159028
#	183511
#	207362
#
# Disc length: 2987 seconds
# Revision: 0
# Processed by: cddbd v1.5.2PL0 Copyright (c) Steve Scherf et al.
# Submitted via: dBpowerAMP V12.0
#
DISCID=7c0ba90a
DTITLE=Old Californio - Westering Again
DYEAR=2009
DGENRE=Americana
TTITLE0=Mother Road
TTITLE1=Riparian High 2
TTITLE2=City Lines
TTITLE3=Just Like Joseph Campbell
TTITLE4=From Mouth of Babes
TTITLE5=The Warmth of The Sun
TTITLE6=Harmony
TTITLE7=Lazy Old San Gabriels
TTITLE8=Are You Coming Home
TTITLE9=California Goodness
EXTD=
EXTT0=
EXTT1=
EXTT2=
EXTT3=
EXTT4=
EXTT5=
EXTT6=
EXTT7=
EXTT8=
EXTT9=
PLAYORDER=
